<mxfile host="Electron" agent="Mozilla/5.0 (X11; Linux x86_64) AppleWebKit/537.36 (KHTML, like Gecko) draw.io/24.7.8 Chrome/128.0.6613.36 Electron/32.0.1 Safari/537.36" version="24.7.8">
  <diagram id="R2lEEEUBdFMjLlhIrx00" name="Page-1">
    <mxGraphModel dx="2035" dy="1315" grid="1" gridSize="10" guides="1" tooltips="1" connect="1" arrows="1" fold="1" page="1" pageScale="1" pageWidth="1654" pageHeight="1169" math="0" shadow="0" extFonts="Permanent Marker^https://fonts.googleapis.com/css?family=Permanent+Marker">
      <root>
        <mxCell id="0" />
        <mxCell id="1" parent="0" />
        <mxCell id="hesLOwXTew-nNUrArzFy-1" value="&lt;font style=&quot;font-size: 18px;&quot;&gt;&lt;b&gt;Courses&lt;/b&gt;&lt;/font&gt;" style="rounded=0;whiteSpace=wrap;html=1;" vertex="1" parent="1">
          <mxGeometry x="250" y="290" width="120" height="60" as="geometry" />
        </mxCell>
        <mxCell id="hesLOwXTew-nNUrArzFy-2" value="&lt;font style=&quot;font-size: 18px;&quot;&gt;&lt;u&gt;course_Id&lt;/u&gt;&lt;/font&gt;" style="ellipse;whiteSpace=wrap;html=1;" vertex="1" parent="1">
          <mxGeometry x="20" y="150" width="150" height="80" as="geometry" />
        </mxCell>
        <mxCell id="hesLOwXTew-nNUrArzFy-3" value="&lt;font style=&quot;font-size: 18px;&quot;&gt;Name&lt;/font&gt;" style="ellipse;whiteSpace=wrap;html=1;" vertex="1" parent="1">
          <mxGeometry x="290" y="130" width="150" height="80" as="geometry" />
        </mxCell>
        <mxCell id="hesLOwXTew-nNUrArzFy-5" value="&lt;font style=&quot;font-size: 18px;&quot;&gt;User_code&lt;/font&gt;" style="ellipse;whiteSpace=wrap;html=1;" vertex="1" parent="1">
          <mxGeometry x="210" y="490" width="150" height="80" as="geometry" />
        </mxCell>
        <mxCell id="hesLOwXTew-nNUrArzFy-6" value="&lt;font style=&quot;font-size: 18px;&quot;&gt;Paid/Free&lt;/font&gt;" style="ellipse;whiteSpace=wrap;html=1;" vertex="1" parent="1">
          <mxGeometry x="20" y="390" width="150" height="80" as="geometry" />
        </mxCell>
        <mxCell id="hesLOwXTew-nNUrArzFy-8" value="&lt;font style=&quot;font-size: 17px;&quot;&gt;Category&lt;/font&gt;" style="ellipse;shape=doubleEllipse;whiteSpace=wrap;html=1;" vertex="1" parent="1">
          <mxGeometry x="470" y="300" width="145" height="70" as="geometry" />
        </mxCell>
        <mxCell id="hesLOwXTew-nNUrArzFy-13" value="" style="endArrow=classic;html=1;rounded=0;exitX=0.139;exitY=-0.013;exitDx=0;exitDy=0;exitPerimeter=0;entryX=0.5;entryY=1;entryDx=0;entryDy=0;" edge="1" parent="1" source="hesLOwXTew-nNUrArzFy-1" target="hesLOwXTew-nNUrArzFy-2">
          <mxGeometry width="50" height="50" relative="1" as="geometry">
            <mxPoint x="320" y="340" as="sourcePoint" />
            <mxPoint x="370" y="290" as="targetPoint" />
          </mxGeometry>
        </mxCell>
        <mxCell id="hesLOwXTew-nNUrArzFy-14" value="" style="endArrow=classic;html=1;rounded=0;exitX=0;exitY=1;exitDx=0;exitDy=0;entryX=0.983;entryY=0.219;entryDx=0;entryDy=0;entryPerimeter=0;" edge="1" parent="1" source="hesLOwXTew-nNUrArzFy-1" target="hesLOwXTew-nNUrArzFy-6">
          <mxGeometry width="50" height="50" relative="1" as="geometry">
            <mxPoint x="320" y="340" as="sourcePoint" />
            <mxPoint x="370" y="290" as="targetPoint" />
          </mxGeometry>
        </mxCell>
        <mxCell id="hesLOwXTew-nNUrArzFy-15" value="" style="endArrow=classic;html=1;rounded=0;exitX=0.5;exitY=1;exitDx=0;exitDy=0;" edge="1" parent="1" source="hesLOwXTew-nNUrArzFy-1" target="hesLOwXTew-nNUrArzFy-5">
          <mxGeometry width="50" height="50" relative="1" as="geometry">
            <mxPoint x="320" y="340" as="sourcePoint" />
            <mxPoint x="370" y="290" as="targetPoint" />
          </mxGeometry>
        </mxCell>
        <mxCell id="hesLOwXTew-nNUrArzFy-16" value="" style="endArrow=classic;html=1;rounded=0;entryX=0;entryY=0.5;entryDx=0;entryDy=0;exitX=1;exitY=0.5;exitDx=0;exitDy=0;" edge="1" parent="1" source="hesLOwXTew-nNUrArzFy-1" target="hesLOwXTew-nNUrArzFy-8">
          <mxGeometry width="50" height="50" relative="1" as="geometry">
            <mxPoint x="320" y="340" as="sourcePoint" />
            <mxPoint x="370" y="290" as="targetPoint" />
          </mxGeometry>
        </mxCell>
        <mxCell id="hesLOwXTew-nNUrArzFy-17" value="" style="endArrow=classic;html=1;rounded=0;exitX=0.5;exitY=0;exitDx=0;exitDy=0;entryX=0.425;entryY=1.042;entryDx=0;entryDy=0;entryPerimeter=0;" edge="1" parent="1" source="hesLOwXTew-nNUrArzFy-1" target="hesLOwXTew-nNUrArzFy-3">
          <mxGeometry width="50" height="50" relative="1" as="geometry">
            <mxPoint x="320" y="340" as="sourcePoint" />
            <mxPoint x="370" y="290" as="targetPoint" />
          </mxGeometry>
        </mxCell>
        <mxCell id="hesLOwXTew-nNUrArzFy-18" value="&lt;font style=&quot;font-size: 18px;&quot;&gt;&lt;b&gt;User&lt;/b&gt;&lt;/font&gt;" style="rounded=0;whiteSpace=wrap;html=1;" vertex="1" parent="1">
          <mxGeometry x="1060" y="490" width="140" height="70" as="geometry" />
        </mxCell>
        <mxCell id="hesLOwXTew-nNUrArzFy-19" value="&lt;font style=&quot;font-size: 18px;&quot;&gt;Name&lt;/font&gt;" style="ellipse;whiteSpace=wrap;html=1;" vertex="1" parent="1">
          <mxGeometry x="990" y="320" width="210" height="90" as="geometry" />
        </mxCell>
        <mxCell id="hesLOwXTew-nNUrArzFy-20" value="&lt;font style=&quot;font-size: 18px;&quot;&gt;User_name&lt;/font&gt;" style="ellipse;whiteSpace=wrap;html=1;" vertex="1" parent="1">
          <mxGeometry x="1330" y="290" width="210" height="90" as="geometry" />
        </mxCell>
        <mxCell id="hesLOwXTew-nNUrArzFy-21" value="&lt;font style=&quot;font-size: 18px;&quot;&gt;E-mail_address&lt;/font&gt;" style="ellipse;whiteSpace=wrap;html=1;" vertex="1" parent="1">
          <mxGeometry x="1300" y="450" width="210" height="90" as="geometry" />
        </mxCell>
        <mxCell id="hesLOwXTew-nNUrArzFy-22" value="&lt;font style=&quot;font-size: 18px;&quot;&gt;Age&lt;/font&gt;" style="ellipse;whiteSpace=wrap;html=1;" vertex="1" parent="1">
          <mxGeometry x="1270" y="590" width="210" height="90" as="geometry" />
        </mxCell>
        <mxCell id="hesLOwXTew-nNUrArzFy-23" value="&lt;font style=&quot;font-size: 18px;&quot;&gt;Phone_No.&lt;/font&gt;" style="ellipse;whiteSpace=wrap;html=1;" vertex="1" parent="1">
          <mxGeometry x="1200" y="690" width="210" height="90" as="geometry" />
        </mxCell>
        <mxCell id="hesLOwXTew-nNUrArzFy-24" value="&lt;font style=&quot;font-size: 18px;&quot;&gt;Nationality&lt;/font&gt;" style="ellipse;whiteSpace=wrap;html=1;" vertex="1" parent="1">
          <mxGeometry x="960" y="690" width="210" height="90" as="geometry" />
        </mxCell>
        <mxCell id="hesLOwXTew-nNUrArzFy-25" value="&lt;font style=&quot;font-size: 18px;&quot;&gt;City&lt;/font&gt;" style="ellipse;whiteSpace=wrap;html=1;" vertex="1" parent="1">
          <mxGeometry x="950" y="900" width="210" height="90" as="geometry" />
        </mxCell>
        <mxCell id="hesLOwXTew-nNUrArzFy-26" value="&lt;font style=&quot;font-size: 18px;&quot;&gt;Last_name&lt;/font&gt;" style="ellipse;whiteSpace=wrap;html=1;" vertex="1" parent="1">
          <mxGeometry x="1180" y="150" width="210" height="90" as="geometry" />
        </mxCell>
        <mxCell id="hesLOwXTew-nNUrArzFy-27" value="&lt;font style=&quot;font-size: 18px;&quot;&gt;Address&lt;/font&gt;" style="ellipse;whiteSpace=wrap;html=1;" vertex="1" parent="1">
          <mxGeometry x="710" y="920" width="210" height="90" as="geometry" />
        </mxCell>
        <mxCell id="hesLOwXTew-nNUrArzFy-28" value="&lt;font style=&quot;font-size: 18px;&quot;&gt;First_name&lt;/font&gt;" style="ellipse;whiteSpace=wrap;html=1;" vertex="1" parent="1">
          <mxGeometry x="890" y="180" width="210" height="90" as="geometry" />
        </mxCell>
        <mxCell id="hesLOwXTew-nNUrArzFy-29" value="&lt;font style=&quot;font-size: 18px;&quot;&gt;Country&lt;/font&gt;" style="ellipse;whiteSpace=wrap;html=1;" vertex="1" parent="1">
          <mxGeometry x="1180" y="860" width="210" height="90" as="geometry" />
        </mxCell>
        <mxCell id="hesLOwXTew-nNUrArzFy-30" value="&lt;font style=&quot;font-size: 18px;&quot;&gt;Roll&lt;/font&gt;" style="ellipse;whiteSpace=wrap;html=1;" vertex="1" parent="1">
          <mxGeometry x="740" y="270" width="210" height="90" as="geometry" />
        </mxCell>
        <mxCell id="hesLOwXTew-nNUrArzFy-31" value="&lt;font style=&quot;font-size: 18px;&quot;&gt;&lt;u&gt;User_Id&lt;/u&gt;&lt;/font&gt;" style="ellipse;whiteSpace=wrap;html=1;" vertex="1" parent="1">
          <mxGeometry x="740" y="390" width="210" height="90" as="geometry" />
        </mxCell>
        <mxCell id="hesLOwXTew-nNUrArzFy-32" value="&lt;font style=&quot;font-size: 18px;&quot;&gt;Years_of_experiance&lt;/font&gt;" style="ellipse;whiteSpace=wrap;html=1;" vertex="1" parent="1">
          <mxGeometry x="600" y="810" width="210" height="90" as="geometry" />
        </mxCell>
        <mxCell id="hesLOwXTew-nNUrArzFy-33" value="&lt;font style=&quot;font-size: 18px;&quot;&gt;Universty&lt;/font&gt;" style="ellipse;whiteSpace=wrap;html=1;" vertex="1" parent="1">
          <mxGeometry x="570" y="690" width="210" height="90" as="geometry" />
        </mxCell>
        <mxCell id="hesLOwXTew-nNUrArzFy-34" value="&lt;font style=&quot;font-size: 18px;&quot;&gt;Password&lt;/font&gt;" style="ellipse;whiteSpace=wrap;html=1;" vertex="1" parent="1">
          <mxGeometry x="560" y="470" width="210" height="90" as="geometry" />
        </mxCell>
        <mxCell id="hesLOwXTew-nNUrArzFy-35" value="&lt;font style=&quot;font-size: 18px;&quot;&gt;Degree&lt;/font&gt;" style="ellipse;whiteSpace=wrap;html=1;" vertex="1" parent="1">
          <mxGeometry x="570" y="584.5" width="210" height="90" as="geometry" />
        </mxCell>
        <mxCell id="hesLOwXTew-nNUrArzFy-46" value="" style="endArrow=classic;html=1;rounded=0;exitX=0;exitY=0.5;exitDx=0;exitDy=0;entryX=1;entryY=0.5;entryDx=0;entryDy=0;" edge="1" parent="1" source="hesLOwXTew-nNUrArzFy-18" target="hesLOwXTew-nNUrArzFy-34">
          <mxGeometry width="50" height="50" relative="1" as="geometry">
            <mxPoint x="1090" y="650" as="sourcePoint" />
            <mxPoint x="1140" y="600" as="targetPoint" />
          </mxGeometry>
        </mxCell>
        <mxCell id="hesLOwXTew-nNUrArzFy-47" value="" style="endArrow=classic;html=1;rounded=0;exitX=0;exitY=0.75;exitDx=0;exitDy=0;entryX=1.01;entryY=0.667;entryDx=0;entryDy=0;entryPerimeter=0;" edge="1" parent="1" source="hesLOwXTew-nNUrArzFy-18" target="hesLOwXTew-nNUrArzFy-35">
          <mxGeometry width="50" height="50" relative="1" as="geometry">
            <mxPoint x="870" y="560" as="sourcePoint" />
            <mxPoint x="1140" y="600" as="targetPoint" />
          </mxGeometry>
        </mxCell>
        <mxCell id="hesLOwXTew-nNUrArzFy-48" value="" style="endArrow=classic;html=1;rounded=0;exitX=0;exitY=1;exitDx=0;exitDy=0;entryX=1;entryY=0.5;entryDx=0;entryDy=0;" edge="1" parent="1" source="hesLOwXTew-nNUrArzFy-18" target="hesLOwXTew-nNUrArzFy-33">
          <mxGeometry width="50" height="50" relative="1" as="geometry">
            <mxPoint x="1090" y="650" as="sourcePoint" />
            <mxPoint x="1140" y="600" as="targetPoint" />
          </mxGeometry>
        </mxCell>
        <mxCell id="hesLOwXTew-nNUrArzFy-49" value="" style="endArrow=classic;html=1;rounded=0;exitX=0.143;exitY=1;exitDx=0;exitDy=0;exitPerimeter=0;entryX=0.981;entryY=0.311;entryDx=0;entryDy=0;entryPerimeter=0;" edge="1" parent="1" source="hesLOwXTew-nNUrArzFy-18" target="hesLOwXTew-nNUrArzFy-32">
          <mxGeometry width="50" height="50" relative="1" as="geometry">
            <mxPoint x="1090" y="650" as="sourcePoint" />
            <mxPoint x="1140" y="600" as="targetPoint" />
          </mxGeometry>
        </mxCell>
        <mxCell id="hesLOwXTew-nNUrArzFy-50" value="" style="endArrow=classic;html=1;rounded=0;exitX=0.267;exitY=0.978;exitDx=0;exitDy=0;exitPerimeter=0;entryX=0.743;entryY=0.022;entryDx=0;entryDy=0;entryPerimeter=0;" edge="1" parent="1" source="hesLOwXTew-nNUrArzFy-24" target="hesLOwXTew-nNUrArzFy-27">
          <mxGeometry width="50" height="50" relative="1" as="geometry">
            <mxPoint x="1090" y="650" as="sourcePoint" />
            <mxPoint x="1140" y="600" as="targetPoint" />
          </mxGeometry>
        </mxCell>
        <mxCell id="hesLOwXTew-nNUrArzFy-51" value="" style="endArrow=classic;html=1;rounded=0;exitX=0.5;exitY=1;exitDx=0;exitDy=0;entryX=0.5;entryY=0;entryDx=0;entryDy=0;" edge="1" parent="1" source="hesLOwXTew-nNUrArzFy-24" target="hesLOwXTew-nNUrArzFy-25">
          <mxGeometry width="50" height="50" relative="1" as="geometry">
            <mxPoint x="1090" y="650" as="sourcePoint" />
            <mxPoint x="1140" y="600" as="targetPoint" />
          </mxGeometry>
        </mxCell>
        <mxCell id="hesLOwXTew-nNUrArzFy-52" value="" style="endArrow=classic;html=1;rounded=0;exitX=1;exitY=1;exitDx=0;exitDy=0;entryX=0;entryY=0;entryDx=0;entryDy=0;" edge="1" parent="1" source="hesLOwXTew-nNUrArzFy-24" target="hesLOwXTew-nNUrArzFy-29">
          <mxGeometry width="50" height="50" relative="1" as="geometry">
            <mxPoint x="1090" y="650" as="sourcePoint" />
            <mxPoint x="1140" y="600" as="targetPoint" />
          </mxGeometry>
        </mxCell>
        <mxCell id="hesLOwXTew-nNUrArzFy-53" value="" style="endArrow=classic;html=1;rounded=0;exitX=0.5;exitY=1;exitDx=0;exitDy=0;entryX=0.629;entryY=0;entryDx=0;entryDy=0;entryPerimeter=0;" edge="1" parent="1" source="hesLOwXTew-nNUrArzFy-18" target="hesLOwXTew-nNUrArzFy-24">
          <mxGeometry width="50" height="50" relative="1" as="geometry">
            <mxPoint x="1090" y="650" as="sourcePoint" />
            <mxPoint x="1140" y="600" as="targetPoint" />
          </mxGeometry>
        </mxCell>
        <mxCell id="hesLOwXTew-nNUrArzFy-54" value="" style="endArrow=classic;html=1;rounded=0;exitX=0.75;exitY=1;exitDx=0;exitDy=0;entryX=0;entryY=0;entryDx=0;entryDy=0;" edge="1" parent="1" source="hesLOwXTew-nNUrArzFy-18" target="hesLOwXTew-nNUrArzFy-23">
          <mxGeometry width="50" height="50" relative="1" as="geometry">
            <mxPoint x="1090" y="650" as="sourcePoint" />
            <mxPoint x="1140" y="600" as="targetPoint" />
          </mxGeometry>
        </mxCell>
        <mxCell id="hesLOwXTew-nNUrArzFy-55" value="" style="endArrow=classic;html=1;rounded=0;exitX=1;exitY=0.75;exitDx=0;exitDy=0;entryX=0.057;entryY=0.267;entryDx=0;entryDy=0;entryPerimeter=0;" edge="1" parent="1" source="hesLOwXTew-nNUrArzFy-18" target="hesLOwXTew-nNUrArzFy-22">
          <mxGeometry width="50" height="50" relative="1" as="geometry">
            <mxPoint x="1090" y="650" as="sourcePoint" />
            <mxPoint x="1140" y="600" as="targetPoint" />
          </mxGeometry>
        </mxCell>
        <mxCell id="hesLOwXTew-nNUrArzFy-56" value="" style="endArrow=classic;html=1;rounded=0;exitX=1;exitY=0.5;exitDx=0;exitDy=0;entryX=0;entryY=0.5;entryDx=0;entryDy=0;" edge="1" parent="1" source="hesLOwXTew-nNUrArzFy-18" target="hesLOwXTew-nNUrArzFy-21">
          <mxGeometry width="50" height="50" relative="1" as="geometry">
            <mxPoint x="1090" y="650" as="sourcePoint" />
            <mxPoint x="1140" y="600" as="targetPoint" />
          </mxGeometry>
        </mxCell>
        <mxCell id="hesLOwXTew-nNUrArzFy-57" value="" style="endArrow=classic;html=1;rounded=0;exitX=0;exitY=0;exitDx=0;exitDy=0;entryX=1;entryY=1;entryDx=0;entryDy=0;" edge="1" parent="1" source="hesLOwXTew-nNUrArzFy-18" target="hesLOwXTew-nNUrArzFy-30">
          <mxGeometry width="50" height="50" relative="1" as="geometry">
            <mxPoint x="1090" y="650" as="sourcePoint" />
            <mxPoint x="1140" y="600" as="targetPoint" />
          </mxGeometry>
        </mxCell>
        <mxCell id="hesLOwXTew-nNUrArzFy-58" value="" style="endArrow=classic;html=1;rounded=0;exitX=0;exitY=0.5;exitDx=0;exitDy=0;entryX=1;entryY=0.5;entryDx=0;entryDy=0;" edge="1" parent="1" source="hesLOwXTew-nNUrArzFy-18" target="hesLOwXTew-nNUrArzFy-31">
          <mxGeometry width="50" height="50" relative="1" as="geometry">
            <mxPoint x="1090" y="650" as="sourcePoint" />
            <mxPoint x="1140" y="600" as="targetPoint" />
          </mxGeometry>
        </mxCell>
        <mxCell id="hesLOwXTew-nNUrArzFy-59" value="" style="endArrow=classic;html=1;rounded=0;exitX=1;exitY=0.5;exitDx=0;exitDy=0;entryX=0.029;entryY=0.667;entryDx=0;entryDy=0;entryPerimeter=0;" edge="1" parent="1" source="hesLOwXTew-nNUrArzFy-19" target="hesLOwXTew-nNUrArzFy-20">
          <mxGeometry width="50" height="50" relative="1" as="geometry">
            <mxPoint x="1090" y="650" as="sourcePoint" />
            <mxPoint x="1140" y="600" as="targetPoint" />
          </mxGeometry>
        </mxCell>
        <mxCell id="hesLOwXTew-nNUrArzFy-60" value="" style="endArrow=classic;html=1;rounded=0;exitX=0.667;exitY=0;exitDx=0;exitDy=0;exitPerimeter=0;entryX=0.267;entryY=0.978;entryDx=0;entryDy=0;entryPerimeter=0;" edge="1" parent="1" source="hesLOwXTew-nNUrArzFy-19" target="hesLOwXTew-nNUrArzFy-26">
          <mxGeometry width="50" height="50" relative="1" as="geometry">
            <mxPoint x="1090" y="650" as="sourcePoint" />
            <mxPoint x="1140" y="600" as="targetPoint" />
          </mxGeometry>
        </mxCell>
        <mxCell id="hesLOwXTew-nNUrArzFy-61" value="" style="endArrow=classic;html=1;rounded=0;exitX=0.4;exitY=0;exitDx=0;exitDy=0;exitPerimeter=0;entryX=0.5;entryY=1;entryDx=0;entryDy=0;" edge="1" parent="1" source="hesLOwXTew-nNUrArzFy-19" target="hesLOwXTew-nNUrArzFy-28">
          <mxGeometry width="50" height="50" relative="1" as="geometry">
            <mxPoint x="1090" y="650" as="sourcePoint" />
            <mxPoint x="1140" y="600" as="targetPoint" />
          </mxGeometry>
        </mxCell>
        <mxCell id="hesLOwXTew-nNUrArzFy-62" value="" style="endArrow=classic;html=1;rounded=0;exitX=0.5;exitY=0;exitDx=0;exitDy=0;entryX=0.59;entryY=1.022;entryDx=0;entryDy=0;entryPerimeter=0;" edge="1" parent="1" source="hesLOwXTew-nNUrArzFy-18" target="hesLOwXTew-nNUrArzFy-19">
          <mxGeometry width="50" height="50" relative="1" as="geometry">
            <mxPoint x="1090" y="650" as="sourcePoint" />
            <mxPoint x="1140" y="600" as="targetPoint" />
          </mxGeometry>
        </mxCell>
        <mxCell id="hesLOwXTew-nNUrArzFy-64" value="&lt;font style=&quot;font-size: 18px;&quot;&gt;Language&lt;/font&gt;" style="ellipse;whiteSpace=wrap;html=1;" vertex="1" parent="1">
          <mxGeometry x="330" y="390" width="150" height="80" as="geometry" />
        </mxCell>
        <mxCell id="hesLOwXTew-nNUrArzFy-65" value="" style="endArrow=classic;html=1;rounded=0;exitX=1;exitY=1;exitDx=0;exitDy=0;entryX=0.5;entryY=0;entryDx=0;entryDy=0;" edge="1" parent="1" source="hesLOwXTew-nNUrArzFy-1" target="hesLOwXTew-nNUrArzFy-64">
          <mxGeometry width="50" height="50" relative="1" as="geometry">
            <mxPoint x="600" y="560" as="sourcePoint" />
            <mxPoint x="650" y="510" as="targetPoint" />
          </mxGeometry>
        </mxCell>
      </root>
    </mxGraphModel>
  </diagram>
</mxfile>
